<svg version="1.1" id="Layer_1" xmlns="http://www.w3.org/2000/svg" xmlns:xlink="http://www.w3.org/1999/xlink" x="0px" y="0px"
	 width="100%" viewBox="0 0 1024 1024">
<path fill="#0a1f3a" opacity="1.000000" stroke="none"
	d="
M872.160889,106.795242
	C877.206116,112.567184 877.967957,119.380699 878.304932,126.200195
	C879.516785,150.722031 873.734619,174.384430 869.086975,198.162399
	C860.576660,241.701920 845.509460,283.010559 826.121460,322.806732
	C812.628540,350.502563 795.369080,375.818481 776.103210,399.720093
	C737.061584,448.155975 690.596741,488.770935 641.291565,526.324890
	C599.915588,557.839417 557.029297,587.111694 512.179565,613.479797
	C505.854370,617.198486 499.404022,620.674072 492.694427,623.636780
	C485.830536,626.667480 479.940857,625.943909 474.012238,620.514160
	C439.216797,588.646851 406.721863,554.462524 373.414459,521.101196
	C359.790314,507.455017 359.678284,504.496643 369.148590,487.638611
	C403.120728,427.164673 440.297516,368.732452 481.852020,313.178223
	C508.377258,277.716583 538.784729,245.824005 572.421814,216.936005
	C611.091064,183.726303 653.869690,157.375992 701.491638,139.338242
	C742.748779,123.711304 785.205261,112.044197 828.748535,104.571495
	C839.876160,102.661819 850.958862,100.374802 862.367737,102.499580
	C865.909424,103.159187 869.072388,104.336082 872.160889,106.795242
M684.832153,244.747055
	C682.046753,244.298462 679.275879,243.603760 676.473755,243.438049
	C631.916992,240.802811 599.829407,278.833801 605.162720,318.762878
	C610.016846,355.104126 645.429382,381.809509 681.820435,375.455475
	C717.115784,369.292786 742.630981,336.746918 737.832275,301.237457
	C734.150269,273.991272 712.352295,249.925034 684.832153,244.747055
z"/>
<path fill="#0a1f3a" opacity="1.000000" stroke="none"
	d="
M326.276337,729.472412
	C327.032501,736.606873 327.258087,743.398254 328.999268,750.729187
	C334.128693,748.084778 337.849915,744.338257 341.670197,740.814819
	C358.858856,724.961975 372.025970,705.951111 384.241425,686.209290
	C387.533142,680.889404 387.734283,680.837708 392.955719,684.364746
	C402.926941,691.100220 404.942657,696.650574 402.676392,708.611877
	C396.041809,743.629028 377.553986,771.664551 351.632996,795.206360
	C334.062836,811.163818 314.953247,825.088074 293.814392,836.033630
	C288.559174,838.754700 283.030975,840.957581 275.763275,842.499451
	C278.113464,836.518494 280.004456,831.659241 281.937286,826.816711
	C282.502228,825.401367 283.250549,823.892517 282.270844,822.541992
	C281.100037,820.927917 279.446106,822.009827 278.140991,822.461243
	C247.367966,833.104248 217.155289,844.918457 190.901184,864.859985
	C174.721130,877.149658 161.071198,891.910034 148.759293,907.988037
	C144.841965,913.103638 140.754761,918.089233 136.211777,923.805664
	C134.608536,917.942383 136.325806,913.134949 136.982681,908.435425
	C139.967667,887.080444 143.449249,865.795471 146.557907,844.456970
	C150.123779,819.979797 153.879486,795.528992 159.695267,771.475952
	C170.371826,727.319702 185.241745,684.900024 213.171783,648.233704
	C230.927246,624.924561 252.755966,606.448730 279.516052,594.172852
	C287.543884,590.490173 295.818512,588.078186 304.217163,593.635925
	C310.589294,597.852600 310.762695,599.404785 304.519684,604.018555
	C284.406219,618.883057 268.142365,637.177063 255.437698,658.683350
	C246.780472,673.338257 241.555557,689.226440 238.554840,705.892700
	C238.154037,708.118774 237.880676,710.485535 239.008957,713.164246
	C244.634079,711.875916 249.133499,708.217041 254.308502,706.148193
	C257.429047,704.900757 260.549591,701.130188 263.825409,703.448303
	C267.039185,705.722534 264.954926,709.847473 264.499115,713.229309
	C261.874115,732.706726 254.965790,750.534607 244.018616,766.827209
	C243.384094,767.771667 242.826065,768.767517 242.052567,770.033875
	C245.191574,771.419067 247.845047,769.903992 250.364731,769.268616
	C274.016235,763.304565 294.206482,751.096130 312.007568,734.664856
	C314.578033,732.292175 317.242096,730.018677 319.763306,727.595642
	C322.744965,724.730103 324.933777,724.805359 326.276337,729.472412
z"/>
<path fill="#0a1f3a" opacity="1.000000" stroke="none"
	d="
M651.281860,604.831909
	C650.288879,618.890808 648.811096,632.466980 648.462952,646.072083
	C648.000122,664.159729 642.014832,679.390503 628.662537,691.866211
	C599.801636,718.832336 571.563843,746.438904 544.495972,775.223267
	C541.412720,778.502136 537.942261,781.404724 533.901184,783.487793
	C525.379883,787.880432 517.929871,784.518311 515.392029,775.286743
	C514.851074,773.319031 514.685730,771.367920 514.681335,769.365723
	C514.580078,723.378662 513.146179,677.402649 513.516174,631.410034
	C513.541077,628.318604 514.479004,626.606934 517.152771,625.131287
	C564.241638,599.144043 608.004883,568.177490 650.762512,535.711487
	C652.174683,534.639160 653.349304,533.023560 655.859375,533.425293
	C654.339661,557.069641 652.819763,580.715820 651.281860,604.831909
z"/>
<path fill="#0a1f3a" opacity="1.000000" stroke="none"
	d="
M317.942566,347.686584
	C324.854218,344.866058 331.686920,343.934601 338.739777,343.585327
	C360.326782,342.516296 381.897095,341.114563 403.478149,339.919037
	C417.729889,339.129517 431.988922,338.472168 446.193024,337.758270
	C446.855255,340.091736 445.375366,341.209564 444.479126,342.514618
	C415.810181,384.260651 388.320007,426.748230 363.857117,471.125854
	C361.768982,474.913849 359.394775,476.483368 354.884491,476.464966
	C310.069397,476.281891 265.253235,476.355743 220.437363,476.352142
	C217.777298,476.351929 215.160858,476.287903 212.524200,475.574921
	C202.238007,472.793457 199.276520,464.468994 206.269257,456.305542
	C211.784515,449.866852 218.026718,444.050201 223.956009,437.966949
	C248.719620,412.560303 273.507233,387.177032 298.237671,361.738159
	C303.877258,355.937042 310.185272,351.141693 317.942566,347.686584
z"/>
<path fill="#0a1f3a" opacity="1.000000" stroke="none"
	d="
M412.728943,584.285889
	C427.782806,599.410706 442.470764,614.406982 457.489288,629.064697
	C460.764648,632.261353 460.571411,634.261963 457.666290,637.168518
	C452.132721,642.704956 446.829559,648.471680 441.296936,654.009155
	C431.924713,663.389648 417.873535,664.148987 407.710052,653.686829
	C385.543579,630.868835 362.653717,608.753967 340.083008,586.328064
	C329.390137,575.703796 328.870514,563.519226 338.864685,552.185364
	C344.920013,545.318237 351.342804,538.774658 357.632538,532.115906
	C358.059479,531.663879 358.755951,531.466370 358.694580,531.500305
	C376.781403,549.166260 394.631561,566.601013 412.728943,584.285889
z"/>
</svg>
